<svg width="420" height="260" viewBox="0 0 420 260" fill="none" xmlns="http://www.w3.org/2000/svg">
  <defs>
    <linearGradient id="g1" x1="0" y1="0" x2="420" y2="260" gradientUnits="userSpaceOnUse">
      <stop stop-color="#34D399"/>
      <stop offset="1" stop-color="#16A34A"/>
    </linearGradient>
    <radialGradient id="g2" cx="0" cy="0" r="1" gradientUnits="userSpaceOnUse" gradientTransform="translate(315 45) rotate(141.582) scale(154.404 163.321)">
      <stop stop-color="white" stop-opacity="0.45"/>
      <stop offset="1" stop-color="white" stop-opacity="0"/>
    </radialGradient>
  </defs>
  <rect x="1" y="1" width="418" height="258" rx="24" fill="#0F2D1D"/>
  <rect x="1" y="1" width="418" height="258" rx="24" fill="url(#g2)"/>
  <rect x="1" y="1" width="418" height="258" rx="24" stroke="#3C6A52" stroke-width="2"/>
  <circle cx="94" cy="68" r="37" fill="url(#g1)" fill-opacity="0.15"/>
  <circle cx="335" cy="197" r="49" fill="url(#g1)" fill-opacity="0.12"/>
  <path d="M120 164C120 122.026 154.026 88 196 88H224C265.974 88 300 122.026 300 164V164C300 205.974 265.974 240 224 240H196C154.026 240 120 205.974 120 164V164Z" fill="#123A28"/>
  <rect x="182" y="126" width="56" height="78" rx="16" fill="#EFFCF4"/>
  <rect x="202" y="108" width="16" height="20" rx="6" fill="#EFFCF4"/>
  <rect x="202" y="114" width="16" height="8" rx="3" fill="#16A34A"/>
  <path d="M210 140V190" stroke="#16A34A" stroke-width="9" stroke-linecap="round"/>
  <path d="M184 166H236" stroke="#16A34A" stroke-width="9" stroke-linecap="round"/>
  <path d="M66 183C66 172.507 74.5066 164 85 164H117C127.493 164 136 172.507 136 183V183C136 193.493 127.493 202 117 202H85C74.5066 202 66 193.493 66 183V183Z" fill="#1A4A33"/>
  <path d="M326 94C326 83.5066 334.507 75 345 75H372C382.493 75 391 83.5066 391 94V94C391 104.493 382.493 113 372 113H345C334.507 113 326 104.493 326 94V94Z" fill="#1A4A33"/>
  <path d="M89 122L96 130L111 115" stroke="#34D399" stroke-width="6" stroke-linecap="round" stroke-linejoin="round"/>
  <path d="M345 175L352 183L367 168" stroke="#34D399" stroke-width="6" stroke-linecap="round" stroke-linejoin="round"/>
</svg>
